# xmcd CD database file
#
# Track frame offsets:
#	150
#	19433
#	48700
#	70367
#	88981
#	119631
#	140381
#	164878
#	184646
#	214336
#
# Disc length: 3266 seconds
#
# Revision: 0
# Processed by: cddbd v1.5.2PL0 Copyright (c) Steve Scherf et al.
# Submitted via: CDex 1.51
#
DISCID=a50cc00a
DTITLE=Trichotomy - Known-Unknown
DYEAR=2016
DGENRE=Jazz
TTITLE0=Five
TTITLE1=Cells
TTITLE2=Junk
TTITLE3=Imaginary Limits
TTITLE4=Past Tense 
TTITLE5=Asset or Liability
TTITLE6=It's Strange Coming Back
TTITLE7=Reverie of Lack
TTITLE8=Semi-Quasars
TTITLE9=Trichotomy - Hemmingways
EXTD=YEAR: 2016
EXTT0=
EXTT1=
EXTT2=
EXTT3=
EXTT4=
EXTT5=
EXTT6=
EXTT7=
EXTT8=
EXTT9=
PLAYORDER=
